<?xml version="1.0" standalone="no"?>
<!DOCTYPE svg PUBLIC "-//W3C//DTD SVG 1.1//EN" "http://www.w3.org/Graphics/SVG/1.1/DTD/svg11.dtd" >
<svg xmlns="http://www.w3.org/2000/svg">
<metadata>Generated by IcoMoon</metadata>
<defs>
<font id="icomoon" horiz-adv-x="1024">
<font-face units-per-em="1024" ascent="960" descent="-64" />
<missing-glyph horiz-adv-x="1024" />
<glyph unicode="&#x20;" horiz-adv-x="512" d="" />
<glyph unicode="&#xe900;" glyph-name="back" horiz-adv-x="984" d="M657.569 183.928c-3.915-1.466-8.172-2.49-12.629-2.49h-163.177c-19.235 0-34.936 15.32-34.936 34.234 0 18.753 15.48 33.832 34.515 34.153l-0.080 0.080h154.222c73.527 0 133.18 58.87 133.18 131.474s-59.653 131.474-133.18 131.474h-367.475l55.798-55.115c13.653-13.432 13.734-35.177 0.161-48.489-13.573-13.432-35.539-13.352-49.232 0.161l-115.331 113.885c-13.653 13.432-13.734 35.177-0.161 48.57 0.944 0.944 2.289 1.265 3.313 2.048l113.744 112.218c13.734 13.473 35.86 13.573 49.513 0.161 13.573-13.432 13.473-35.338-0.241-48.811l-56.902-56.22h365.227c0.402 0 0.783-0.241 1.185-0.241 110.753-1.265 200.222-90.032 200.222-199.7-0.020-102.039-77.724-185.304-177.734-197.391v0z" />
<glyph unicode="&#xe901;" glyph-name="delete" horiz-adv-x="984" d="M755.652 596.239h-48.509v-500.033c0-14.818-11.505-26.845-25.741-26.845h-387.574c-14.195 0-25.741 12.067-25.741 26.845v500.033h-48.429c-14.276 0-25.821 11.987-25.821 26.845v67.564c0 40.92 31.925 74.25 71.258 74.25h155.768c3.514 10.34 13.071 17.83 24.255 17.83h84.912c11.184 0 20.741-7.429 24.255-17.83h155.768c39.314 0 71.258-33.33 71.258-74.25v-67.564c0.020-14.858-11.485-26.845-25.66-26.845v0zM319.629 123.051h335.952v473.168h-335.952v-473.168zM729.831 690.668c0 11.264-8.835 20.58-19.737 20.58h-444.958c-10.822 0-19.737-9.276-19.737-20.58v-40.759h484.452l-0.020 40.759zM420.141 215.733c-14.276 0-25.821 12.067-25.821 26.845v283.086c0 14.818 11.505 26.845 25.821 26.845 14.195 0 25.741-12.067 25.741-26.845v-283.086c-0.060-14.778-11.565-26.845-25.741-26.845v0zM555.169 215.733c-14.276 0-25.781 12.067-25.781 26.845v283.086c0 14.818 11.505 26.845 25.781 26.845 14.195 0 25.741-12.067 25.741-26.845v-283.086c-0.020-14.778-11.525-26.845-25.741-26.845v0z" />
<glyph unicode="&#xe902;" glyph-name="help" horiz-adv-x="984" d="M375.788 640.472c28.531 42.807 77.061 70.977 132.337 70.977 87.703-0.161 158.64-71.118 158.82-158.82-0.161-87.703-71.118-158.64-158.82-158.82-4.759 0-9.397-1.907-12.77-5.281-3.353-3.353-5.281-8.011-5.281-12.77 0-84.209 0-110.692 0-110.692 0-9.959 8.092-18.051 18.051-18.051s18.051 8.092 18.051 18.051c0 0 0 26.463 0 110.692h-18.051v-18.051c107.661 0 194.901 87.261 194.921 194.921 0 107.661-87.261 194.901-194.921 194.921-67.725 0-127.518-34.615-162.374-87.080-5.501-8.312-3.273-19.496 5.040-25.038 8.292-5.501 19.476-3.273 24.998 5.040v0 0zM491.279 169.352l-1.225-40.9c-0.301-9.979 7.57-18.271 17.508-18.573 9.979-0.301 18.271 7.529 18.573 17.508l1.185 40.9c0.301 9.959-7.529 18.271-17.508 18.573-9.919 0.301-18.211-7.529-18.532-17.508v0 0z" />
<glyph unicode="&#xe903;" glyph-name="hiring-accepted" horiz-adv-x="984" d="M680.88 539.216l-156.471 0.201c0 0 9.055 34.214 10.682 50.216 1.144 10.963 1.426 21.825-1.325 32.587-4.096 16.284-8.573 26.403-15.822 38.972-3.915 6.666-11.344 10.762-19.536 10.762h-30.298c-12.188 0-22.006-9.156-22.006-20.38 0.1-18.773 0.1-43.831-0.281-44.695-11.907-22.97-25.72-45.076-41.261-66.138-7.048-9.718-14.477-19.054-23.15-27.628-2.289-2.189-2.57-5.24-3.433-8.092h-32.226c-10.581 0-19.054-8.855-19.054-19.737v-169.703c0-10.963 8.473-19.817 19.054-19.817h87.181c0.1 0 0.281 0.1 0.381 0.1 54.894 0.181 131.594 0.582 188.677 0.181 7.911-0.1 15.159 3.715 19.155 9.999l55.657 87.662c3.715 6.104 5.722 12.971 5.803 20.018l0.281 105.191c0 11.164-9.899 20.299-22.006 20.299zM489.914 115.461c-196.206 0-355.328 159.142-355.328 355.328 0 196.206 159.142 355.328 355.328 355.328 196.287 0 355.328-159.122 355.328-355.328 0.020-196.186-159.021-355.328-355.328-355.328z" />
<glyph unicode="&#xe904;" glyph-name="hiring-process" horiz-adv-x="984" d="M619.139 616.498h-48.971v-114.909c0-4.959-3.614-8.855-8.192-8.855-4.477 0-8.092 3.915-8.092 8.855v167.996h-49.072v-150.367c0-4.859-3.614-8.855-8.192-8.855-4.477 0-8.092 3.996-8.092 8.855v167.996h-49.072v-167.996c0-4.859-3.614-8.855-8.092-8.855-4.578 0-8.192 3.996-8.192 8.855v132.638h-48.971v-221.084l-33.17 48.971c-9.818 16.384-28.873 21.926-42.888 12.489-14.015-9.537-17.428-30.499-7.811-46.783 0 0 53.368-87.381 76.137-124.828 22.689-37.446 59.553-66.701 128.442-66.701 114.066 0 124.265 95.393 124.265 123.784-0.040 28.491-0.040 238.793-0.040 238.793zM489.914 115.461c-196.206 0-355.328 159.142-355.328 355.348s159.142 355.328 355.328 355.328c196.287 0 355.328-159.142 355.328-355.328 0.020-196.206-159.021-355.348-355.328-355.348z" />
<glyph unicode="&#xe905;" glyph-name="hiring-rejected" horiz-adv-x="984" d="M678.029 597.343c0 10.862-8.473 19.737-19.054 19.737h-87.181c-0.1 0-0.281-0.1-0.381-0.1-54.894-0.181-131.594-0.482-188.677-0.1-7.911 0-15.159-3.815-19.155-10.099l-55.657-87.662c-3.715-6.104-5.722-12.951-5.803-20.018l-0.281-105.111c0-11.244 9.919-20.299 22.006-20.4l156.471-0.1c0 0-9.055-34.214-10.682-50.216-1.144-10.963-1.426-21.906 1.325-32.688 4.096-16.203 8.573-26.403 15.822-38.872 3.915-6.666 11.344-10.862 19.536-10.862h30.298c12.188 0 22.006 9.156 22.006 20.4-0.1 18.773-0.1 43.831 0.281 44.695 11.907 23.070 25.72 45.176 41.261 66.219 7.048 9.618 14.477 19.054 23.15 27.548 2.289 2.289 2.47 5.341 3.433 8.092h32.206c10.581 0 19.054 8.875 19.054 19.817v169.723zM489.914 115.461c-196.206 0-355.328 159.142-355.328 355.328 0 196.206 159.142 355.328 355.328 355.328 196.287 0 355.328-159.142 355.328-355.328 0.020-196.186-159.021-355.328-355.328-355.328z" />
<glyph unicode="&#xe906;" glyph-name="jobs-active" horiz-adv-x="984" d="M835.002 287.915v-61.38c0-2.249-0.080-3.594-0.161-5.522 0.080-0.843 0.502-1.586 0.502-2.429 0-1.165-0.502-2.168-0.663-3.333-1.084-19.476-5.18-20.48-10.862-17.649-4.598-3.253-10.039-5.602-16.223-5.602h-74.511c0.582 0.502 1.245 0.663 1.847 1.165l100.071 94.75zM785.589 599.733h-662.869v-125.51h223.433v16.484c0 2.851 0.743 5.441 1.345 8.112-0.502 1.928-1.345 3.755-1.345 5.843 0 13.874 12.368 25.098 27.588 25.098h148.42c11.043 0 20.4-6.024 24.837-14.557 5.261-6.104 8.694-14.717 8.694-24.496v-15.3h229.878v124.326zM539.246 720.484h-201.286v-67.564h201.266v67.564zM398.597 429.729h104.689v49.915h-104.689v-49.915zM785.589 422.962h-229.878v-9.859c0-18.472-11.786-33.451-26.263-33.451-0.663 0-1.165 0.341-1.747 0.422-0.843-0.080-1.586-0.422-2.429-0.422h-148.42c-0.924 0-1.667 0.422-2.59 0.502-0.663-0.080-1.245-0.502-1.928-0.502-14.456 0-26.182 14.979-26.182 33.451v11.123h-223.433v-179.019h394.28l32.447-53.188h-451.223c-1.165-0.161-2.249-0.663-3.514-0.663-15.46 0-28.009 11.967-28.009 26.664v408.215c0 14.717 12.549 26.684 28.009 26.684 0.241 0 0.502-0.161 0.743-0.161s0.502 0.161 0.743 0.161h180.545v97.16c0 8.192 3.353 15.561 8.955 20.902 5.522 5.441 13.212 8.694 21.665 8.694h260.739c0.341 0 0.582-0.161 0.924-0.161s0.502 0.161 0.843 0.161c16.886 0 30.6-13.212 30.6-29.596v-97.16h206.788c0.502 0 1.004-0.261 1.506-0.261s1.004 0.261 1.506 0.261c13.633 0 24.757-10.621 24.757-23.672v-173.257l-49.413-46.823v13.794zM975.33 456.654l-332.559-293.165c-5.682-5.361-13.212-7.851-20.58-7.69-10.782-1.265-21.986 3.514-27.849 13.131l-82.362 132.698c-7.77 12.79-3.353 28.933 9.959 36.201 13.292 7.268 30.439 2.851 38.209-9.959l66.64-107.46 308.987 272.444c11.204 10.2 29.094 10.36 39.976 0.422 10.943-10.039 10.782-26.423-0.422-36.623z" />
<glyph unicode="&#xe907;" glyph-name="jobs-applied" horiz-adv-x="984" d="M900.558 143.952c0 1.626-0.221 3.192-0.462 4.739 0.020 1.446 0.060 2.711 0.060 4.297v458.712c0 14.858-11.907 26.905-26.564 26.905-0.402 0-0.723-0.201-1.104-0.221-0.743 0.060-1.466 0.221-2.209 0.221h-222.67v110.733c0 18.613-14.758 33.712-32.969 33.712-0.381 0-0.723-0.1-1.104-0.12-0.261 0-0.502 0.080-0.763 0.080h-280.496c-0.12 0-0.221 0.040-0.341 0.040-11.384 0-21.424-5.903-27.347-14.858-3.574-5.381-5.642-11.866-5.642-18.854 0-0.080 0.020-0.161 0.020-0.241v-110.472h-194.399c-0.281 0-0.542-0.080-0.803-0.080-0.281 0-0.542 0.080-0.823 0.080-16.645 0-30.158-13.573-30.158-30.318v-201.347c0-0.12-0.040-0.221-0.040-0.321s0.040-0.221 0.040-0.321v-263.027c0-16.725 13.493-30.318 30.158-30.318 2.189 0 4.337 0.261 6.385 0.723h761.334c6.706 0 12.83 2.329 17.83 6.104 5.722-2.891 9.838-2.068 11.164 17.147 0.562 2.249 0.904 4.578 0.904 7.007zM847.009 578.048v-141.573h-247.627v17.388c0 11.144-3.594 21.082-9.256 28.070-4.759 9.678-14.958 16.424-26.865 16.424h-159.804c-16.444 0-29.776-12.77-29.776-28.531 0-2.349 0.381-4.618 0.944-6.807-0.542-2.952-0.904-5.963-0.904-9.136v-18.773h-240.62v142.958h713.909zM430.16 441.254h112.801v-56.802h-112.801v56.802zM133.1 378.167h240.62v-12.649c0-21.062 12.629-38.129 28.21-38.129 0.683 0 1.345 0.201 2.008 0.281 0.944-0.080 1.867-0.281 2.831-0.281h159.804c0.924 0 1.787 0.181 2.67 0.261 0.643-0.060 1.245-0.261 1.887-0.261 15.581 0 28.21 17.067 28.21 38.129v11.284h247.627v-202.531h-713.869v203.896zM364.925 715.625h216.747v-77.001h-216.747v77.001z" />
<glyph unicode="&#xe908;" glyph-name="jobs-archived" horiz-adv-x="984" d="M760.792 125.641l-514.931 0.1v501.901l77.463-0.1 437.589-421.788-0.12-80.113zM312.139 767.147h234.135v-140.489c0-15.199 13.332-25.781 29.013-25.781h146.773l0.402-264.132-354.445 346.293c-5.301 5.2-12.549 8.132-20.099 8.132h-35.78v75.977zM603.036 731.668l83.044-80.113h-83.044v80.113zM816.69 245.449l-23.432 25.399c0 0 0 356.593 0 356.995-0.301 6.566-2.952 12.449-7.068 16.966v0.1c-0.402 0.381-192.853 186.87-192.853 186.87-4.698 3.915-10.682 6.385-17.348 6.666-0.402 0-300.715 0-300.715 0-15.681 0-28.531-12.348-28.531-27.648v-119.627l-38.832 0.482c-15.782 0-28.531-12.348-28.531-27.648v-572.095c0-15.3 12.75-27.648 28.531-27.648h588.077c15.782 0 28.531 12.348 28.531 27.648v134.024c0 7.268-2.831 14.316-7.831 19.516z" />
<glyph unicode="&#xe909;" glyph-name="jobs-bookmarked" horiz-adv-x="984" d="M738.886 705.606c0 33.491-19.978 61.942-48.048 73.628v-336.093c0-0.361-0.181-0.643-0.181-1.024 0.462-8.835-2.309-17.669-8.553-24.195-6.064-6.345-14.175-9.477-22.367-9.216h-0.1c-6.987 0-13.071 3.032-18.312 7.268-1.466 1.104-3.132 1.847-4.518 3.213l-75.736 79.229-75.836-79.229c-7.088-7.449-16.384-10.581-25.399-10.039-0.743-0.1-1.385-0.462-2.108-0.462-17.207 0-31.202 15.46-31.202 34.414v338.141c0 1.285 0.643 2.389 0.743 3.674h-93.325c-41.783 0-75.656-35.519-75.656-79.33v-523.726c0-43.711 33.872-79.049 75.656-79.049h329.085c41.864 0 75.836 35.338 75.836 79.049v523.746zM488.307 784.936c0.1-1.285 0.743-2.389 0.743-3.674v-266.24l46.743 48.951c6.807 7.168 15.922 10.12 24.757 9.658 9.116 0.823 18.593-2.108 25.761-9.577l42.064-43.992v261.18c0 1.285 0.643 2.389 0.743 3.674l-140.81 0.020zM700.516 37.577h-403.717c-55.778 0-100.954 47.124-100.954 105.191v597.072c0 58.067 45.176 105.191 100.954 105.191h403.717c55.677 0 100.854-47.124 100.854-105.191v-597.072c0-58.087-45.176-105.191-100.854-105.191z" />
<glyph unicode="&#xe90a;" glyph-name="jobs-completed" horiz-adv-x="984" d="M790.628 495.204l-35.679-216.184c0-0.181 0-0.542-0.181-0.883-1.526-12.971-6.525-52.204-68.126-52.204h-276.6c-24.757 0-46.301 18.071-50.236 41.843-0.181 0.984-0.361 1.887-0.542 2.59v241.363l1.345 0.361c0.361 0 0.622 0.181 0.984 0.181 1.345 0.361 34.153 9.377 66.781 32.085 45.317 31.383 69.471 73.587 69.471 122.037v91.196c12.79 1.245 30.298 0.723 43.269-8.493 13.854-9.919 20.821-29.415 20.821-57.746v-113.544c0-12.429 10.461-22.528 23.15-22.528h155.728c11.625 0 22.97-4.297 32.266-11.806 13.874-11.706 20.5-30.037 17.549-48.269zM292.402 245.589c0-0.723-0.542-1.165-1.245-1.165h-82.783c-0.723 0-1.345 0.442-1.345 1.165v266.601c0 0.723 0.622 1.245 1.345 1.245h82.763c0.723 0 1.245-0.542 1.245-1.245v-266.601zM821.469 589.794c-18.693 15.741-42.386 24.315-66.419 24.315h-141.352v97.621c0 46.662-14.216 80.635-42.386 101.015-44.514 31.744-104.769 13.854-107.46 13.051-10.28-3.213-17.247-12.509-17.247-22.97v-117.66c0-35.86-17.528-66.259-52.304-90.574-26.283-18.512-53.288-27.005-56.762-27.989l-2.51-0.622c-9.216 10.28-22.789 16.725-38.089 16.725h-93.786c-27.989 0-50.879-22.347-50.879-49.714v-301.016c0-27.367 22.889-49.714 50.879-49.714h94.228c12.328 0 23.873 4.477 32.547 11.706 18.874-18.071 44.614-29.134 72.423-29.134h294.852c29.676 0 55.778 6.967 75.716 20.119 25.56 16.886 41.402 43.63 45.859 77.864l38.089 231.364c6.003 35.88-7.59 72.443-35.398 95.613z" />
<glyph unicode="&#xe90b;" glyph-name="jobs-invited" horiz-adv-x="984" d="M703.669 780.479h78.205v-351.975h-78.205v351.975zM703.669 350.298h78.205v-78.205h-78.205v78.205zM432.53 384.693h111.897v56.34h-111.897v-56.34zM367.797 636.838h215.040v76.398h-215.040v-76.398zM899.213 146.101c0-1.506-0.663-2.751-0.843-4.196-1.205-21.705-5.401-22.709-11.505-19.536-4.979-3.715-10.722-6.285-17.328-6.285h-758.061c-1.265-0.181-2.329-0.723-3.594-0.723-16.545 0-29.897 13.493-29.897 30.077v260.959c0 0.12-0.060 0.181-0.060 0.301s0.060 0.181 0.060 0.301v199.76c0 16.605 13.372 30.077 29.897 30.077 0.301 0 0.542-0.181 0.843-0.181s0.482 0.181 0.783 0.181h192.853v109.849c0 13.854 8.152 25.72 19.958 30.74 3.895 1.687 8.212 2.63 12.71 2.63h278.628c0.361 0 0.663-0.181 0.964-0.181s0.602 0.181 0.904 0.181c18.091 0 32.728-14.918 32.728-33.39v-109.849h16.344v-60.115h-526.818v-141.794h238.773v18.633c0 3.233 0.843 6.044 1.385 9.055-0.602 2.209-1.446 4.377-1.446 6.766 0 15.641 13.192 28.291 29.555 28.291h158.519c11.927 0 22.046-6.827 26.724-16.545 5.582-6.947 9.116-16.605 9.116-27.568v-17.267h64.191v-59.211h-64.191v-11.204c0-20.861-12.529-37.808-27.989-37.808-0.663 0-1.205 0.482-1.867 0.542-0.904-0.060-1.747-0.542-2.691-0.542h-158.519c-1.024 0-1.867 0.422-2.811 0.542-0.663-0.060-1.265-0.542-1.988-0.542-15.46 0-27.989 16.966-27.989 37.808v12.589h-238.773v-202.27h708.267v200.905h-25.118v59.211h25.118v140.429h-25.118v60.115h48.188c0.602 0 1.084-0.301 1.687-0.361 0.602 0.060 1.024 0.361 1.626 0.361 14.557 0 26.363-11.927 26.363-26.724v-454.997c0-2.389-0.12-3.835-0.181-5.943 0.12-1.084 0.602-1.988 0.602-3.072z" />
<glyph unicode="&#xe90c;" glyph-name="jobs-search" horiz-adv-x="984" d="M864.939 167.504l-110.15 91.036c32.627 70.897 12.649 157.756-51.983 206.426-73.869 55.637-178.116 40.317-232.809-34.234-54.714-74.551-39.173-180.083 34.696-235.741 62.062-46.763 145.468-43.229 203.013 3.253l115.893-95.754c16.685-14.336 39.454-11.425 50.879 6.525s7.148 44.152-9.537 58.488zM699.553 273.779c-3.735-2.53-7.088-5.863-9.798-10.099-1.747-2.751-3.012-5.742-4.036-8.814-36.723-40.217-97.983-47.044-142.537-13.453-47.706 35.981-57.746 104.187-22.448 152.355s102.601 58.047 150.287 22.066c44.474-33.511 55.718-94.851 28.531-142.055zM440.621 214.106h-290.716v195.785h263.871c0.462-0.020 0.883-0.141 1.345-0.141 10.501 0 19.516 6.325 24.154 15.541 2.148 4.036 3.474 8.573 3.474 13.453 0 0.301-0.080 0.582-0.080 0.883v39.293h15.922c15.501 0 28.050 12.91 28.050 28.833s-12.549 28.833-28.050 28.833h-43.008c-0.12 0-0.241-0.040-0.361-0.040-0.040 0-0.060 0.020-0.1 0.020-5.321 0-10.22-1.687-14.436-4.457-0.261-0.181-0.582-0.301-0.843-0.482-0.402-0.281-0.743-0.663-1.144-0.964-6.746-5.261-11.164-13.513-11.164-22.889 0-0.161 0.040-0.321 0.040-0.502 0-0.020 0-0.040 0-0.080v-39.595h-237.668v136.855h680.237v-136.614h-23.512c-19.235 0-34.816-16.023-34.816-35.78s15.581-35.78 34.816-35.78h23.512v-159.905c0-14.376 11.344-26.042 25.319-26.042s25.319 11.666 25.319 26.042v400.625c0 14.376-11.344 26.022-25.319 26.022-0.381 0-0.683-0.201-1.044-0.221-0.703 0.060-1.385 0.221-2.108 0.221h-212.169v107.018c0 18.010-14.075 32.587-31.423 32.587-0.341 0-0.683-0.1-1.024-0.1-0.261 0-0.502 0.080-0.763 0.080h-267.304c-0.080 0-0.161 0.020-0.261 0.020-8.674 0-16.545-3.654-22.227-9.557s-9.216-14.035-9.216-23.050c0-0.080 0.020-0.161 0.020-0.241v-106.777h-185.224c-0.261 0-0.502-0.080-0.763-0.080s-0.502 0.080-0.783 0.080c-15.862 0-28.732-13.111-28.732-29.294v-449.536c0-16.183 12.87-29.294 28.732-29.294 2.088 0 4.136 0.261 6.104 0.703h313.324c15.721 0 28.471 13.111 28.471 29.274 0.020 16.163-12.73 29.254-28.451 29.254zM370.788 737.451h206.527v-74.451h-206.527v74.451z" />
<glyph unicode="&#xe90d;" glyph-name="mark-as-favorite" horiz-adv-x="984" d="M624.279 221.515h0.402zM624.279 221.515l-45.217 160.888 126.755 101.898-159.503 4.498-53.007 158.218-53.389-158.158-159.503-4.076 126.554-102.179-45.618-160.828 131.554 94.991 131.373-95.252zM716.92 88.676l-224.075 162.455-224.376-161.973 77.704 274.151-211.687 170.867 266.923 6.927 41.522 122.94 50.537 149.926 91.477-272.986 266.943-7.469-212.048-170.566 35.76-127.036 41.321-147.235z" />
<glyph unicode="&#xe90e;" glyph-name="mark-as-read" horiz-adv-x="984" d="M774.465 254.745c-6.485-10.28-20.962-13.734-32.306-7.77l-92.521 47.967c-11.364 5.923-15.34 19.115-8.814 29.395 6.485 10.28 20.962 13.734 32.306 7.77l92.521-47.907c11.364-5.983 15.34-19.175 8.814-29.455v0zM642.148 201.035h-497.724c-13.272 0-24.014 9.678-24.014 21.504 0 11.927 10.742 21.564 24.014 21.564h497.724c13.332 0 24.074-9.678 24.074-21.564 0-11.846-10.742-21.504-24.074-21.504v0zM141.573 204.047c-13.192 0-23.893 9.678-23.893 21.504v301.197c0 11.927 10.682 21.504 23.893 21.504s23.954-9.597 23.954-21.504v-301.197c0-11.866-10.762-21.504-23.954-21.504v0zM443.753 660.55l-283.708-151.371c-11.284-6.104-25.861-2.45-32.387 8.152-6.546 10.621-2.63 24.195 8.674 30.379l283.708 151.291c11.284 6.104 25.861 2.51 32.387-8.152 6.525-10.601 2.61-24.195-8.674-30.298v0zM753.242 518.134c-6.967-10.401-22.006-14.115-33.611-8.373l-298.024 151.612c-11.605 5.823-15.34 18.894-8.373 29.254 6.967 10.401 22.066 14.175 33.692 8.373l297.944-151.612c11.625-5.783 15.4-18.894 8.373-29.254v0zM915.617 468.46l-140.669-208.936c-6.967-10.019-21.564-13.794-32.688-8.493-11.063 5.321-14.477 17.709-7.57 27.668l140.73 208.996c6.907 9.959 21.504 13.734 32.627 8.433 11.103-5.321 14.537-17.729 7.57-27.668v0zM469.695 394.089l-309.549-162.655c-11.364-6.164-25.921-2.51-32.507 8.072-6.546 10.621-2.63 24.134 8.754 30.238l309.489 162.655c11.425 6.104 25.981 2.51 32.507-8.072 6.606-10.642 2.711-24.134-8.694-30.238v0zM605.485 341.524c-6.967-10.401-22.006-14.115-33.611-8.373l-129.546 62.404c-11.605 5.823-15.4 18.894-8.433 29.254 6.967 10.401 22.066 14.115 33.692 8.373l129.546-62.404c11.585-5.783 15.32-18.854 8.353-29.254v0zM732.1 352.105c-13.272 0-24.014 9.597-24.014 21.444v149.765c0 11.866 10.742 21.444 24.014 21.444s24.014-9.597 24.014-21.444v-149.765c0-11.866-10.762-21.444-24.014-21.444v0zM408.737 370.959l-266.059 133.401c-12.79 6.365-17.468 19.978-10.501 30.439 6.967 10.401 22.97 13.613 35.74 7.228l266.059-133.321c26.323-13.272 1.084-11.746-25.239-37.747v0zM745.291 504.32c0 0-151.11-80.856-223.935-119.848-15.842 13.573-43.63 24.014-62.143 17.91l262.385 140.348c12.589 6.706 28.17 3.594 34.696-7.027 6.566-10.541 1.667-24.656-11.003-31.383v0z" />
<glyph unicode="&#xe90f;" glyph-name="my-account" horiz-adv-x="984" d="M486.661 610.655c-91.397 0-165.828-73.005-165.828-162.675 0-89.69 74.431-162.796 165.828-162.796 91.377 0 165.747 73.106 165.747 162.796 0 89.67-74.371 162.675-165.747 162.675zM486.661 336.464c-63.147 0-114.507 49.995-114.507 111.516 0 61.4 51.341 111.395 114.507 111.395 63.127 0 114.467-49.955 114.467-111.395 0.020-61.52-51.341-111.516-114.467-111.516zM822.774 566.543l-13.392 31.864c53.81 122.117 50.076 125.811 36.844 138.862l-68.026 66.319c-4.779 4.658-12.328 7.57-19.054 7.57-5.341 0-17.669 0-119.989-46.341l-33.19 13.392c-49.795 123.362-55.095 123.362-73.347 123.362h-95.955c-18.332 0-24.195 0-70.515-123.784l-33.029-13.453c-104.147 43.952-116.937 43.952-121.876 43.952-6.726 0-14.316-2.931-19.095-7.61l-67.945-66.419c-13.653-13.412-17.549-17.267 39.233-137.015l-13.392-31.744c-126.173-48.831-126.173-53.629-126.173-72.443v-94.007c0-18.894 0-24.375 126.615-69.712l13.392-31.644c-53.81-122.057-50.337-125.49-36.824-138.802l67.845-66.44c4.779-4.779 12.368-7.69 19.155-7.69 5.281 0 17.589 0 119.989 46.461l33.23-13.513c49.815-123.282 55.095-123.282 73.387-123.282h95.915c18.793 0 24.174 0 70.515 123.784l33.19 13.432c104.127-44.032 116.856-44.032 121.715-44.032 6.706 0 14.256 2.931 19.095 7.63l68.086 66.56c13.513 13.432 17.448 17.368-39.374 136.955l13.312 31.764c126.173 48.851 126.253 53.71 126.253 72.523v93.987c0.060 18.874 0.060 24.295-126.595 69.512zM898.148 417.16c-19.797-9.357-64.873-27.869-103.625-42.847-6.465-2.47-11.706-7.549-14.396-13.934l-22.026-52.344c-2.851-6.787-2.61-14.436 0.462-21.022 17.167-36.001 36.503-78.728 44.112-98.886l-47.586-46.682c-20.6 6.927-66.058 25.259-104.508 41.562-6.285 2.691-13.432 2.771-19.677 0.241l-53.509-21.705c-6.646-2.65-11.886-8.092-14.396-14.778-14.015-37.808-31.483-81.599-40.538-101.015h-68.006c-9.618 19.175-28.471 63.287-43.791 101.235-2.57 6.465-7.67 11.585-14.155 14.175l-53.489 21.705c-6.546 2.61-13.874 2.47-20.259-0.462-37.406-17.006-81.659-36.101-102.039-43.49l-47.626 46.582c7.208 20.4 25.58 64.371 42.044 101.577 2.811 6.465 2.931 13.814 0.181 20.279l-22.006 52.324c-2.771 6.586-8.232 11.746-15.019 14.195-38.51 13.714-83.305 30.72-103.203 39.695v65.315c19.717 9.377 64.713 27.768 103.464 42.727 6.505 2.49 11.666 7.529 14.376 13.955l22.147 52.324c2.811 6.787 2.691 14.436-0.462 21.022-17.187 36.081-36.402 78.788-44.072 99.007l47.626 46.562c20.54-6.807 66.158-25.098 104.609-41.462 6.305-2.67 13.372-2.731 19.717-0.161l53.328 21.685c6.666 2.67 11.947 8.072 14.396 14.858 13.995 37.727 31.403 81.539 40.518 100.995h67.986c9.618-19.255 28.411-63.388 43.651-101.336 2.53-6.465 7.77-11.645 14.195-14.236l53.469-21.604c6.546-2.67 13.934-2.47 20.239 0.442 37.426 17.047 81.679 36.141 102.079 43.49l47.646-46.542c-7.228-20.46-25.6-64.412-42.064-101.577-2.891-6.465-2.891-13.834-0.201-20.38l22.026-52.425c2.811-6.706 8.312-11.806 15.099-14.216 38.49-13.673 83.225-30.62 103.243-39.534v-65.315z" />
<glyph unicode="&#xe910;" glyph-name="my-inbox" horiz-adv-x="984" d="M755.31 704.201h-537.299c-80.193 0-145.207-62.002-145.207-138.501v-235.44c0-76.479 65.014-138.481 145.207-138.481h537.299c80.213 0 145.227 62.002 145.227 138.481v235.46c0 76.479-65.014 138.481-145.227 138.481zM239.074 645.552h496.941c23.833 0 45.598-7.79 63.327-20.5l-307.722-172.815-310.493 176.67c16.705 10.441 36.543 16.645 57.946 16.645zM842.411 354.354c0-56.44-47.626-102.179-106.396-102.179h-496.941c-58.77 0-106.396 45.739-106.396 102.179v189.018c0 15.36 3.795 29.796 10.12 42.867l335.009-190.605c10.24-5.823 22.669-4.538 31.483 2.289l325.572 182.854c4.759-11.605 7.59-24.154 7.59-37.386v-189.038z" />
<glyph unicode="&#xe911;" glyph-name="my-profile" horiz-adv-x="984" d="M664.757 442.037c-7.951-19.436-17.87-37.466-29.616-53.67 72.041-35.84 119.487-96.818 119.487-166.069-413.857 0-537.821 0-537.821 0 0 64.753 41.683 122.157 105.994 158.66-12.429 15.842-23.251 33.471-31.905 52.726-84.39-45.257-139.545-118.844-139.545-202.19 0-24.295 4.879-47.706 13.593-69.893h642.389c8.694 22.207 13.593 45.598 13.593 69.893-0.020 88.686-62.444 166.35-156.17 210.542zM477.867 333.232c96.156 0 174.361 97.882 174.361 218.192 0 120.27-78.246 218.172-174.361 218.172-47.405 0-91.718-23.271-124.747-65.556-32.025-40.96-49.634-95.192-49.634-152.656 0-120.27 78.205-218.152 174.381-218.152zM476.943 701.771c62.886 0 114.066-67.584 114.066-150.669 0-83.064-51.18-150.689-114.066-150.689s-114.066 67.624-114.086 150.689c0 83.085 51.18 150.669 114.086 150.669z" />
<glyph unicode="&#xe912;" glyph-name="test-done" horiz-adv-x="984" d="M660.4 573.229l-137.035-31.824-12.007 141.894h-65.175l-12.007-143.219-135.79 33.17-19.918-61.079 129.124-52.987-75.937-124.627 53.268-38.49 94.529 114.066 94.429-114.066 51.923 38.49-74.511 124.627 129.124 52.987-20.018 61.059zM489.914 115.461c-196.206 0-355.328 159.041-355.328 355.328 0 196.206 159.142 355.328 355.328 355.328 196.287 0 355.328-159.142 355.328-355.328 0.020-196.287-159.021-355.328-355.328-355.328z" />
<glyph unicode="&#xe913;" glyph-name="test-review" horiz-adv-x="984" d="M390.445 451.735c-31.724 31.724-31.724 83.185 0 115.009 31.724 31.724 83.185 31.724 115.009 0 31.724-31.824 31.724-83.285 0-115.009-31.824-31.724-83.285-31.724-115.009 0zM648.955 365.417l-57.565 57.545c-1.426 1.426-3.333 2.088-4.959 3.233 37.346 62.504 29.736 144.565-24.114 198.395-63.548 63.468-166.571 63.468-230.019 0-63.548-63.568-63.548-166.571 0-230.119 53.83-53.83 135.79-61.56 198.295-24.114 1.245-1.626 1.907-3.534 3.333-4.959l57.464-57.565c15.922-15.822 41.643-15.822 57.565 0 15.922 15.942 15.922 41.663 0 57.585zM489.914 115.461c-196.206 0-355.328 159.142-355.328 355.328 0 196.287 159.142 355.328 355.328 355.328 196.287 0 355.328-159.041 355.328-355.328 0.020-196.186-159.021-355.328-355.328-355.328z" />
<glyph unicode="&#xe914;" glyph-name="test-take" horiz-adv-x="984" d="M491.54 395.756c-29.917 0-52.124-23.452-52.124-54.513 0-30.499 22.207-53.931 52.124-53.931 29.816 0 52.124 23.432 52.124 53.931 0 31.081-22.307 54.513-52.124 54.513zM448.191 687.054l2.952-77.944 12.288-179.341h56.22l12.288 179.341 2.952 77.944h-86.699zM489.914 115.501c-196.206 0-355.328 159.041-355.328 355.328 0 196.206 159.142 355.248 355.328 355.248 196.287 0 355.328-159.041 355.328-355.248 0.020-196.287-159.021-355.328-355.328-355.328z" />
<glyph unicode="&#xe915;" glyph-name="team" horiz-adv-x="984" d="M95.352 446.996v-30.278c0 0 35.177-31.142 115.873-31.142 7.831 0 14.617 0.482 21.544 0.924-8.192-21.042-14.436-43.189-19.456-67.122v-0.060c-1.225 0-2.209-0.181-3.494-0.181-125.309 0-183.416 56.4-183.416 56.4s0 24.596 0 75.254c0 40.317 27.969 72.001 71.519 91.457 16.083-39.836 21.223-57.143 27.648-62.584-31.563-8.935-30.218-32.668-30.218-32.668zM219.618 673.3c-24.837 0-44.976-26.744-44.976-59.713s20.119-59.713 44.976-59.713c24.837 0 45.036 26.744 45.036 59.713s-20.199 59.713-45.036 59.713zM218.995 488.418c-55.738 0-100.894 54.754-100.894 122.298s45.156 122.298 100.894 122.298c55.677 0 100.894-54.754 100.894-122.298s-45.217-122.298-100.894-122.298zM501.298 591.44c-37.868 0-68.588-39.032-68.588-87.181s30.72-87.181 68.588-87.181c37.868 0 68.588 39.032 68.588 87.181s-30.72 87.181-68.588 87.181zM502.523 344.757c-72.865 0-131.976 71.098-131.976 158.76 0 87.622 59.111 158.7 131.976 158.7 72.925 0 132.036-71.098 132.036-158.7 0-87.662-59.111-158.76-132.036-158.76zM754.527 295.926c0-65.837 0-97.702 0-97.702s-76.117-73.286-240.018-73.286c-193.395 0-263.991 73.286-263.991 73.286s0 42.024 0 97.702c0 46.080 44.594 89.871 97.762 115.752 7.349-12.489 13.774-32.788 31.684-54.453-37.326-24.235-56.28-29.053-63.327-54.453-9.417-33.892 0-61.601 0-61.601s60.075-47.285 194.68-47.285c124.627 0 174.542 47.847 174.542 47.847s1.887 35.117-5.682 58.669c-7.529 23.492-18.773 39.032-51.943 58.729 18.291 18.111 21.966 33.411 32.668 55.437 56.983-25.219 93.626-66.319 93.626-118.643zM777.778 662.418c-24.837 0-45.036-26.744-45.036-59.713s20.199-59.713 45.036-59.713c24.837 0 45.036 26.744 45.036 59.713s-20.199 59.713-45.036 59.713zM778.441 477.515c-55.738 0-100.894 54.754-100.894 122.298s45.156 122.298 100.894 122.298c55.677 0 100.894-54.754 100.894-122.298 0-67.524-45.217-122.298-100.894-122.298zM799.443 308.897c-1.165 9.357-2.63 18.593-4.518 27.588-2.751 13.212-5.883 25.761-9.296 38.169 0.181 0 0.361 0 0.542 0 80.695 0 115.873 31.142 115.873 31.142v30.278c0 0-5.943 20.058-24.777 32.668 6.425 5.441 14.075 33.591 22.207 62.584 43.57-19.456 71.58-51.14 71.58-91.457 0-50.658 0-75.254 0-75.254s-54.935-52.164-171.61-55.718z" />
<glyph unicode="&#xe916;" glyph-name="team-workplace" horiz-adv-x="984" d="M892.426 466.432h-124.607c-18.111 0-32.848 15.079-32.848 33.752v6.746c0 18.673 14.738 33.812 32.848 33.812h124.607c18.191 0 32.929-15.159 32.929-33.812v-6.746c0-18.653-14.738-33.752-32.929-33.752zM484.513 259.524h-6.746c-18.532 0-33.551 15.159-33.551 33.812v6.746c0 18.673 15.019 33.812 33.551 33.812h6.746c18.532 0 33.611-15.159 33.611-33.812v-6.746c0-18.653-15.079-33.812-33.611-33.812zM163.398 362.988l1.165-129.847h628.475l0.683 129.847h-630.322zM629.86 628.505c4.538 0 31.342-9.497 31.342 28.511 0 54.613 0 153.741 0 153.741s-10.943 15.219-29.415 15.219c-80.595 0-304.248 0-382.494 0-17.288 0-27.487-15.219-27.487-15.219v-151.873c0 0 9.437-30.379 25.56-30.379 75.756 0 299.55 0 382.494 0zM892.486 362.988h-26.504l-2.269-321.476c0-18.593-14.597-33.611-32.587-33.611h-6.546c-17.97 0-32.587 15.019-32.587 33.611l0.622 117.298h-627.371l1.104-117.298c0-18.593-14.597-33.611-32.587-33.611h-6.525c-17.97 0-32.587 15.019-32.587 33.611l-3.453 321.476h-26.644c-18.111 0-32.848 14.738-32.848 32.929v6.606c0 18.191 14.738 32.989 32.848 32.989h337.318v115.792c-80.595 0-157.535 0-207.33 0-28.511 0-57.043 13.011-57.043 57.585 0 99.388 0 228.131 0 255.759s16.183 36.844 57.043 36.844c117.86 0 391.027 0 513.024 0 26.102 0 37.948-19.155 37.948-36.844 0-67.504 0-199.198 0-262.646 0-42.285-31.624-50.698-68.809-50.698-48.57 0-117.72 0-190.243 0v-115.792h406.026c18.111 0 32.848-14.818 32.848-32.989v-6.606c0.020-18.191-14.717-32.929-32.848-32.929z" />
</font>
</defs>
</svg>
